<?xml version="1.0" encoding="utf-8"?>
<!-- Generator: Adobe Illustrator 18.0.0, SVG Export Plug-In . SVG Version: 6.00 Build 0)  -->
<!DOCTYPE svg PUBLIC "-//W3C//DTD SVG 1.1//EN" "http://www.w3.org/Graphics/SVG/1.1/DTD/svg11.dtd">
<svg version="1.1" id="Layer_1" xmlns="http://www.w3.org/2000/svg" xmlns:xlink="http://www.w3.org/1999/xlink" x="0px" y="0px"
	 viewBox="0 0 524 1024" style="enable-background:new 0 0 524 1024;" xml:space="preserve">
<g>
	<g>
		<path d="M324.645,311.998c-11.399,12.238-26.255,25.846-20.154,43.976c4.671,13.878,18.095,24.925,28.121,34.926
			c3.291,3.282,46.698-40.194,43.442-43.442c-7.989-7.969-16.133-15.822-22.739-25.013c-3.036-4.224-5.272-8.87-6.565-13.9
			c-2.422-9.415,7.895-19.219-6.367-3.906c4.167-4.474,8.439-8.977,11.983-13.979c-0.192,0.271,4.114-5.543,0.516-3.863
			c-4.136,1.93-7.946,5.719-11.28,8.684C335.715,300.714,330.014,306.233,324.645,311.998L324.645,311.998z"/>
	</g>
	<g>
		<g>
			<path d="M289.743,925.748c-11.399,12.238-26.255,25.846-20.154,43.976c4.671,13.878,18.095,24.925,28.121,34.926
				c3.291,3.282,46.698-40.194,43.442-43.442c-7.989-7.969-16.133-15.822-22.739-25.013c-3.036-4.224-5.272-8.87-6.565-13.9
				c-2.422-9.415,7.895-19.219-6.367-3.906c4.167-4.474,8.439-8.977,11.983-13.979c-0.192,0.271,4.114-5.543,0.516-3.863
				c-4.136,1.93-7.946,5.719-11.28,8.684C300.813,914.464,295.112,919.984,289.743,925.748L289.743,925.748z"/>
		</g>
		<g>
			<path d="M204.716,925.748c-11.399,12.238-26.255,25.846-20.154,43.976c4.671,13.878,18.095,24.925,28.121,34.926
				c3.291,3.282,46.698-40.194,43.442-43.442c-7.989-7.969-16.133-15.822-22.739-25.013c-3.036-4.224-5.272-8.87-6.565-13.9
				c-2.422-9.415,7.895-19.219-6.367-3.906c4.167-4.474,8.439-8.977,11.983-13.979c-0.192,0.271,4.114-5.543,0.516-3.863
				c-4.136,1.93-7.946,5.719-11.28,8.684C215.787,914.464,210.086,919.984,204.716,925.748L204.716,925.748z"/>
		</g>
	</g>
	<polygon style="fill:none;" points="262.003,781.006 261.998,781.004 261.997,781.005 	"/>
	<g>
		<path d="M452.459,101.69c-0.689-7.036-2.156-13.937-4.086-20.55c-0.255-0.866-0.413-1.587-0.756-2.567l-0.98-2.831
			c-0.63-1.886-1.455-3.734-2.228-5.579c-0.784-1.843-1.725-3.636-2.617-5.431c-0.963-1.768-1.958-3.522-3.009-5.234
			c-4.267-6.831-9.493-13.015-15.367-18.294C417.554,35.9,411,31.588,404.151,28.186c-13.722-6.816-28.787-9.668-43.454-8.888
			c-14.674,0.772-28.966,5.472-40.908,12.972c-0.745,0.473-1.501,0.919-2.225,1.424l-1.248,0.91l-2.385,1.78
			c-1.585,1.182-3.136,2.386-4.584,3.755c-1.467,1.332-2.922,2.659-4.32,4.028c-1.341,1.441-2.655,2.894-3.94,4.355
			c-4.993,5.947-9.218,12.383-12.178,19.031l-1.144,2.474l-0.963,2.5c-0.616,1.667-1.269,3.324-1.789,4.984
			c-0.954,3.329-1.94,6.634-2.483,9.903c-1.347,6.547-1.697,12.9-1.678,18.997c0.26,12.174,2.691,23.235,6.344,32.989
			c3.501,9.205,7.734,16.855,11.938,23.487c4.222,6.607,8.446,12.098,12.336,16.775c5.62,6.747,10.544,11.825,14.459,15.732
			c-2.746,2.386-5.531,4.762-8.388,7.118c-7.526,6.266-15.392,12.437-23.536,18.614c-8.481,6.336-16.996,12.697-25.537,19.077
			c-8.761,6.681-17.53,13.424-26.192,20.441c-17.373,13.93-34.432,28.683-51.007,44.187c-32.926,31.208-63.832,65.971-88.72,104.842
			c-1.602,2.389-3.101,4.853-4.613,7.304c-1.501,2.458-3.043,4.883-4.496,7.366c-2.865,4.997-5.812,9.921-8.474,15.014
			c-5.533,10.054-10.437,20.417-15.118,30.79c-9.132,20.866-16.625,42.207-22.11,63.64c-2.697,10.747-5.099,21.37-6.947,32.141
			c-1.009,5.36-1.709,10.759-2.497,16.104c-0.632,5.377-1.327,10.711-1.74,16.06c-0.534,5.33-0.787,10.668-1.102,15.962
			c-0.084,2.655-0.168,5.302-0.252,7.942l-0.105,3.953l0.003,3.951c-0.092,10.509,0.456,20.924,1.294,31.176
			c0.858,10.257,2.313,20.352,4.025,30.25c0.491,2.469,0.98,4.928,1.467,7.377l0.742,3.663l0.857,3.633
			c0.578,2.414,1.154,4.818,1.727,7.213c0.655,2.38,1.307,4.75,1.957,7.109c0.624,2.363,1.339,4.697,2.087,7.014
			c0.738,2.316,1.472,4.622,2.204,6.918c0.812,2.275,1.621,4.539,2.426,6.793c0.407,1.125,0.812,2.247,1.217,3.367
			c0.444,1.108,0.886,2.214,1.328,3.318c0.888,2.203,1.771,4.395,2.651,6.577c0.961,2.153,1.918,4.295,2.87,6.427
			c0.948,2.132,1.901,4.248,2.961,6.311c0.988,1.987,2.237,4.518,2.648,5.263c9.775,18.25,21.019,33.727,32.036,46.361
			c11.056,12.637,21.967,22.389,31.358,29.724c2.282,1.915,4.612,3.514,6.737,5.093c2.158,1.536,4.109,3.063,6.063,4.291
			c3.87,2.504,7.082,4.722,9.808,6.324c5.449,3.18,8.356,4.876,8.356,4.876s-2.585-2.142-7.431-6.157
			c-2.449-1.953-5.271-4.643-8.668-7.648c-1.718-1.478-3.411-3.263-5.295-5.053c-1.851-1.832-3.892-3.682-5.874-5.833
			c-8.153-8.328-17.489-19.002-26.705-32.191c-9.184-13.192-18.333-28.838-26.033-46.74c-0.293-0.747-1.374-3.173-2.212-5.085
			c-0.905-1.981-1.707-4.015-2.503-6.061c-0.802-2.042-1.608-4.095-2.418-6.157c-0.732-2.088-1.468-4.185-2.207-6.293l-1.108-3.167
			l-1-3.215c-0.663-2.148-1.329-4.306-1.997-6.473c-0.592-2.186-1.187-4.381-1.785-6.586c-0.609-2.201-1.188-4.418-1.678-6.665
			c-0.517-2.239-1.036-4.488-1.558-6.746c-0.445-2.271-0.892-4.55-1.34-6.839l-0.668-3.439l-0.556-3.469
			c-0.366-2.316-0.734-4.642-1.103-6.976c-1.237-9.363-2.249-18.883-2.703-28.55c-1.999-38.647,2.888-79.406,14.26-119.462
			c5.724-20.039,13.107-39.95,22.021-59.408c4.592-9.663,9.364-19.315,14.721-28.696c2.571-4.752,5.421-9.351,8.17-14.024
			c1.397-2.323,2.88-4.593,4.318-6.895c1.448-2.296,2.88-4.606,4.414-6.85c23.973-36.337,53.409-69.387,85.249-99.359
			c15.927-14.997,32.418-29.332,49.284-42.991c8.401-6.875,16.936-13.523,25.452-20.136c8.58-6.587,17.099-12.96,25.372-19.416
			c8.297-6.45,16.417-12.975,24.265-19.671c7.826-6.721,15.357-13.629,22.49-20.757c14.221-14.242,27.006-29.468,36.007-45.835
			c4.488-8.152,8.077-16.549,10.11-25.002c2.072-8.443,2.708-16.883,1.793-25.013c-0.414-4.071-1.32-8.05-2.474-11.942
			c-0.245-1.026-0.575-1.861-0.885-2.712c-0.276-0.872-0.695-1.673-1.034-2.508c-0.35-0.83-0.809-1.6-1.191-2.406
			c-0.448-0.769-0.892-1.538-1.358-2.289c-3.832-5.935-9.255-10.648-15.518-13.594c-6.228-3.014-13.206-4.198-19.828-3.75
			c-6.647,0.461-12.91,2.663-18.232,6.121c-0.33,0.221-0.679,0.413-0.994,0.652l-0.535,0.439l-1.034,0.834
			c-0.699,0.539-1.391,1.075-1.97,1.717c-0.613,0.6-1.224,1.197-1.832,1.792c-0.539,0.65-1.075,1.297-1.608,1.942
			c-2.017,2.652-3.789,5.391-4.95,8.419l-0.484,1.096l-0.369,1.155c-0.237,0.77-0.533,1.503-0.74,2.274
			c-0.336,1.581-0.806,3.075-0.968,4.673c-0.564,3.104-0.573,6.288-0.489,9.351c0.371,6.175,1.834,12.018,3.967,17.119
			c4.608,10.961,11.352,19.929,17.533,27.104c3.309,3.842,6.481,7.162,9.324,10.017c-5.988,7.376-12.871,14.726-20.333,21.876
			c-3.599,3.453-7.342,6.871-11.194,10.262c-3.227-4.447-7.244-10.171-11.842-17.373c-3.156-5.017-6.551-10.778-9.825-17.453
			c-3.256-6.69-6.429-14.229-8.793-22.878c-2.462-8.991-3.727-18.903-3.125-29.377c0.409-5.236,1.108-10.607,2.644-15.994
			c0.641-2.705,1.678-5.377,2.64-8.07c0.523-1.337,1.162-2.654,1.754-3.982l0.917-1.989l1.072-1.942
			c2.737-5.241,6.465-10.145,10.688-14.618c1.098-1.08,2.202-2.166,3.31-3.256c1.174-1.011,2.39-1.983,3.599-2.966
			c1.188-1.017,2.476-1.888,3.782-2.742l1.954-1.293l1.014-0.665c0.579-0.381,1.191-0.707,1.788-1.061
			c9.582-5.588,20.779-8.874,32.15-9.133c11.36-0.259,22.901,2.287,33.184,7.766c10.31,5.377,19.316,13.79,25.402,24.111
			c0.747,1.293,1.452,2.615,2.14,3.941c0.62,1.358,1.301,2.696,1.845,4.086c0.533,1.393,1.131,2.769,1.557,4.196
			c0.466,1.421,0.934,2.854,1.221,4.179c1.41,5.382,2.452,10.929,2.853,16.559c0.903,11.261-0.392,22.698-3.383,33.46
			c-2.957,10.805-7.645,20.882-13.13,30.302c-11.121,18.809-25.433,35.075-40.865,49.977c-7.739,7.443-15.797,14.549-24.073,21.389
			c-8.247,6.875-16.703,13.507-25.252,19.996c-8.517,6.363-17.067,12.751-25.643,19.158c-8.434,6.431-16.868,12.913-25.135,19.611
			c-16.61,13.312-32.742,27.278-48.288,41.812c-30.857,29.255-59.142,61.213-81.491,96.197c-1.447,2.152-2.787,4.367-4.143,6.568
			c-1.344,2.208-2.734,4.386-4.034,6.612c-2.553,4.478-5.205,8.889-7.568,13.439c-4.945,8.985-9.281,18.216-13.442,27.437
			c-8.084,18.551-14.705,37.449-19.539,56.471c-9.81,38.043-12.991,76.153-9.805,111.523c0.76,8.843,2.049,17.483,3.525,25.93
			c0.426,2.099,0.851,4.19,1.274,6.274l0.637,3.115l0.743,3.075c0.495,2.044,0.989,4.079,1.48,6.107
			c0.562,2.005,1.121,4.002,1.678,5.991c0.528,1.997,1.14,3.956,1.78,5.896c0.625,1.943,1.248,3.878,1.868,5.804
			c0.689,1.899,1.375,3.789,2.058,5.671l1.024,2.813l1.124,2.756c0.745,1.832,1.487,3.655,2.225,5.469
			c0.808,1.781,1.612,3.553,2.412,5.316c0.791,1.766,1.584,3.519,2.474,5.213c0.828,1.636,1.865,3.722,2.21,4.334
			c8.198,14.985,17.519,27.486,26.588,37.653c9.106,10.161,18.059,17.936,25.789,23.777c1.863,1.538,3.799,2.795,5.543,4.054
			c1.78,1.219,3.366,2.449,4.99,3.414c3.206,1.977,5.829,3.758,8.091,5.025c4.504,2.524,6.906,3.87,6.906,3.87
			s-2.081-1.792-5.982-5.152c-1.985-1.618-4.218-3.87-6.951-6.348c-1.387-1.217-2.715-2.704-4.222-4.176
			c-1.471-1.513-3.118-3.021-4.681-4.794c-6.491-6.834-13.869-15.531-21.135-26.244c-7.237-10.726-14.461-23.395-20.585-38.032
			c-0.228-0.614-1.097-2.596-1.774-4.156c-0.736-1.611-1.377-3.282-2.017-4.962c-0.65-1.674-1.303-3.356-1.959-5.046
			c-0.591-1.72-1.184-3.448-1.781-5.184l-0.904-2.605l-0.807-2.661c-0.541-1.776-1.084-3.56-1.629-5.351
			c-0.481-1.816-0.964-3.64-1.45-5.472c-0.501-1.825-0.976-3.668-1.371-5.548c-0.425-1.868-0.851-3.744-1.28-5.627
			c-0.363-1.903-0.727-3.814-1.093-5.733l-0.553-2.881l-0.451-2.922c-0.302-1.95-0.606-3.907-0.911-5.872
			c-1.001-7.912-1.847-15.977-2.203-24.23c-0.344-8.249-0.495-16.639-0.102-25.156l0.106-3.196l0.204-3.208
			c0.141-2.141,0.282-4.288,0.424-6.441c0.418-4.306,0.749-8.636,1.339-12.979c0.467-4.349,1.196-8.702,1.833-13.082
			c0.797-4.363,1.477-8.762,2.446-13.141c1.758-8.773,4.035-17.673,6.469-26.492c5.073-17.628,11.584-35.096,19.45-52.239
			c4.073-8.512,8.276-17.031,13.044-25.343c2.272-4.208,4.826-8.294,7.263-12.448c1.242-2.066,2.575-4.089,3.855-6.142
			c1.292-2.047,2.564-4.107,3.944-6.114c21.434-32.45,48.248-62.696,78.02-90.715c14.898-14.027,30.462-27.574,46.565-40.616
			c8.007-6.556,16.206-12.943,24.396-19.306c4.172-3.182,8.338-6.359,12.496-9.53c4.292-3.257,8.637-6.58,12.982-9.967
			c8.702-6.761,17.412-13.747,25.982-21.053c8.547-7.331,16.953-15.01,25.107-23.137c8.149-8.135,16.058-16.723,23.514-26.012
			c7.447-9.291,14.46-19.289,20.573-30.317c6.103-11.013,11.419-23.055,14.744-36.337
			C452.638,130.147,453.952,115.771,452.459,101.69z M354.496,148.34c-4.73-7.836-9.556-17.276-11.875-27.173
			c-0.942-4.337-1.24-9.033-0.748-13.507c0.343-2.203,0.702-4.404,1.456-6.349c0.261-1.034,0.781-1.896,1.125-2.84
			c0.21-0.449,0.492-0.84,0.705-1.272l0.323-0.643l0.411-0.565c0.938-1.622,2.214-2.828,3.459-4.006
			c0.347-0.264,0.672-0.543,0.978-0.843c0.375-0.24,0.761-0.467,1.111-0.73c0.319-0.29,0.748-0.492,1.168-0.704l0.602-0.348
			l0.301-0.193c0.17-0.116,0.375-0.187,0.557-0.289c2.961-1.546,6.129-2.334,9.474-2.282c3.316,0.074,6.77,0.951,9.558,2.629
			c2.847,1.621,4.898,3.852,6.287,6.394c0.162,0.332,0.315,0.668,0.489,0.996c0.11,0.369,0.309,0.683,0.419,1.06
			c0.1,0.383,0.291,0.712,0.363,1.125c0.051,0.196,0.108,0.39,0.172,0.582c0.065,0.152,0.129,0.618,0.198,0.911
			c0.634,2.661,1.115,5.286,1.241,7.951c0.325,5.31-0.292,10.812-1.996,16.809c-1.664,5.976-4.626,12.407-8.496,18.967
			c-2.957,4.966-6.448,9.983-10.369,14.997C359.259,155.869,356.907,152.284,354.496,148.34z"/>
		<path d="M481.83,752.22c-5.514,19.26-13.501,37.261-23.607,53.542c-5.007,8.171-10.49,15.912-16.404,23.208
			c-5.821,7.388-12.272,14.192-18.876,20.719c-13.439,12.825-28.123,23.991-43.866,32.869c-7.787,4.577-15.927,8.371-24.083,11.903
			c-2.058,0.814-4.132,1.628-6.19,2.442l-3.103,1.198l-3.133,1.075c-2.089,0.706-4.178,1.413-6.251,2.104
			c-2.12,0.614-4.224,1.229-6.328,1.828l-3.164,0.906l-0.353,0.092l-0.261,0.046l-0.538,0.123l-2.12,0.445
			c-1.413,0.307-2.826,0.599-4.224,0.891c-2.78,0.645-5.606,1.029-8.371,1.49c-1.398,0.215-2.765,0.43-4.147,0.645
			c-1.382,0.154-2.749,0.323-4.132,0.476c-2.734,0.261-5.422,0.661-8.125,0.783c-21.549,1.597-41.377-0.553-58.319-4.377
			c-16.956-3.993-31.025-9.63-42.007-15.144c-5.545-2.673-10.245-5.514-14.33-7.925c-3.993-2.55-7.342-4.792-10.014-6.62
			c-5.207-3.886-7.971-5.959-7.971-5.959s3.057,1.597,8.785,4.592c2.888,1.428,6.497,3.118,10.751,5.022
			c4.331,1.766,9.261,3.855,14.929,5.775c11.304,3.917,25.373,7.68,41.715,9.738c16.342,1.889,34.957,2.12,54.648-1.029
			c2.473-0.292,4.915-0.875,7.418-1.321c1.244-0.246,2.488-0.492,3.748-0.737c1.244-0.292,2.488-0.584,3.748-0.891
			c2.504-0.614,5.038-1.152,7.541-1.935c1.259-0.369,2.534-0.737,3.794-1.106l1.905-0.553c1.306-0.399,2.596-0.799,3.901-1.198
			c1.905-0.599,3.824-1.198,5.744-1.797c1.874-0.691,3.763-1.382,5.668-2.074l2.826-1.044l2.795-1.152
			c1.874-0.783,3.732-1.567,5.606-2.35c7.357-3.41,14.699-7.019,21.687-11.35c14.146-8.386,27.262-18.846,39.212-30.718
			c5.867-6.036,11.596-12.303,16.741-19.107c5.237-6.712,10.06-13.823,14.438-21.257c8.832-14.837,15.682-31.118,20.289-48.258
			c4.454-17.187,6.497-35.357,5.13-53.68c-1.398-18.308-6.451-36.739-15.436-53.373c-8.954-16.634-21.81-31.302-36.985-42.545
			l-2.841-2.15l-2.934-1.966c-1.966-1.305-3.886-2.703-5.929-3.84c-2.043-1.198-4.039-2.427-6.113-3.594
			c-2.166-1.091-4.254-2.319-6.482-3.287c-8.785-4.132-18.078-7.219-27.631-9.031c-4.761-0.983-9.599-1.505-14.453-1.935
			c-4.838-0.261-9.722-0.43-14.576-0.138c-9.722,0.415-19.399,2.119-28.783,4.807c-9.384,2.719-18.462,6.604-27.001,11.473
			c-8.478,4.976-16.496,10.874-23.53,17.863l-2.611,2.626c-0.86,0.891-1.674,1.843-2.504,2.749
			c-1.705,1.812-3.225,3.763-4.807,5.683c-3.026,3.947-5.898,7.925-8.494,12.502c-5.084,9.093-8.355,18.692-10.275,28.599
			c-1.92,9.876-2.396,20.044-1.29,30.196c1.075,10.122,3.917,20.32,9,29.735c2.55,4.685,5.668,9.169,9.415,13.178
			c3.748,3.993,8.064,7.495,12.763,10.337c4.7,2.826,9.753,5.068,14.914,6.543c5.038,1.459,9.4,2.335,13.7,3.425
			c4.27,1.06,8.34,2.212,12.088,3.579c3.702,1.382,7.096,3.026,9.492,4.869c1.198,0.922,2.104,1.859,2.734,2.749
			c0.645,0.891,1.014,1.72,1.244,2.688c0.092,0.23,0.108,0.492,0.138,0.753l0.061,0.384v0.23c0,0.184,0.092,0.138,0.031,0.891
			l-0.046,0.86l-0.015,0.261l-0.015,0.046c-0.169,1.382-0.492,2.657-0.968,3.84c-0.538,1.167-1.167,2.304-2.058,3.379
			c-0.937,1.06-1.966,2.12-3.272,3.072c-2.58,1.935-5.836,3.594-9.461,4.853c-7.234,2.565-15.605,3.809-23.883,4.086
			c-4.162,0.138-8.34,0.015-12.333-0.399c-0.998-0.108-1.951-0.23-2.918-0.369l-2.98-0.553c-1.014-0.154-1.981-0.399-2.964-0.63
			c-0.983-0.261-1.981-0.43-2.934-0.737c-7.756-2.166-15.144-5.56-21.841-10.06c-13.424-9.001-24.037-22.286-31.102-37.246
			c-3.548-7.48-6.22-15.405-8.018-23.5c-0.875-4.039-1.582-8.125-2.012-12.226c-0.415-4.147-0.66-8.125-0.553-12.41
			c-0.108-16.926,2.703-33.683,8.156-49.395c5.468-15.743,13.639-30.442,23.745-43.666c10.06-13.255,22.01-25.066,34.973-35.572
			c6.451-5.284,13.27-10.106,20.151-14.76c6.958-4.592,14.084-8.893,21.334-12.932c14.53-8.002,29.536-15.021,44.803-20.98
			c3.794-1.536,7.649-2.934,11.473-4.347c3.871-1.382,7.634-2.688,11.611-4.024c7.925-2.672,15.728-5.299,23.453-7.741
			c3.947-1.244,7.879-2.442,11.811-3.579c11.396-3.302,22.685-6.036,33.836-7.741c3.748-0.568,7.48-1.06,11.197-1.382
			c1.889-0.215,3.64-0.292,5.406-0.399l2.673-0.169l2.995-0.061l2.596-0.061l0.384-0.015l0.492-0.015
			c0.814-0.031,1.628-0.138,2.442-0.292c1.613-0.323,3.195-0.922,4.623-1.736c2.888-1.628,5.237-4.208,6.589-7.311
			c0.323-0.768,0.614-1.567,0.814-2.396l0.138-0.614c0.046-0.215,0.108-0.568,0.154-0.845c0.046-0.292,0.092-0.584,0.108-0.891
			l0.046-0.584l0.015-0.184c0-0.123,0.015-0.86,0.015-0.983c0-0.015,0-0.015,0-0.015v-0.215l-0.031-0.614
			c-0.061-0.814-0.184-1.659-0.384-2.473c-0.753-3.287-2.642-6.282-5.207-8.401c-1.275-1.075-2.734-1.935-4.285-2.55
			c-0.783-0.307-1.582-0.538-2.396-0.722c-0.522-0.108-1.152-0.215-1.72-0.261l-0.661-0.061l-1.49-0.061l-0.568-0.015
			c-3.748-0.108-7.48-0.292-11.212-0.584c-16.296-1.244-32.377-3.932-48.258-7.296c-13.24-2.811-26.341-6.098-39.304-9.415
			c-14.284-3.655-28.445-7.434-42.76-10.69c-7.157-1.628-14.345-3.133-21.656-4.377c-3.655-0.614-7.342-1.152-11.059-1.628
			c-1.874-0.2-3.717-0.445-5.621-0.599l-2.15-0.184l-0.952-0.108c-10.045-0.998-20.243-1.259-30.657,0.553
			c-5.176,0.891-10.367,2.288-15.374,4.347c-5.007,2.058-9.768,4.807-13.992,8.002c-2.15,1.567-4.055,3.348-5.944,5.084
			c-1.766,1.828-3.533,3.64-5.022,5.529c-1.597,1.874-2.888,3.794-4.208,5.683c-1.229,1.905-2.396,3.794-3.425,5.668
			c-4.07,7.495-6.528,14.468-8.371,20.673c-3.471,12.379-4.761,21.81-5.498,28.184c-0.445,3.21-0.599,5.591-0.768,7.234
			c-0.154,1.643-0.246,2.488-0.246,2.488s-0.046-0.845-0.169-2.488c-0.077-1.643-0.323-4.055-0.399-7.311
			c-0.138-6.451-0.43-16.05,1.689-29.336c1.152-6.651,2.918-14.315,6.574-22.947c0.922-2.15,2.027-4.362,3.195-6.604
			c1.29-2.242,2.534-4.516,4.178-6.789c1.49-2.304,3.333-4.546,5.222-6.804c1.997-2.196,4.07-4.423,6.435-6.451
			c4.638-4.132,10.014-7.818,15.728-10.69c5.714-2.857,11.673-4.976,17.586-6.482c11.903-3.041,23.361-3.655,34.435-3.471
			l1.029,0.031l2.365,0.138c2.073,0.107,4.055,0.322,6.113,0.476c3.993,0.399,7.956,0.86,11.842,1.413
			c7.756,1.106,15.298,2.457,22.716,3.932c14.822,2.949,29.198,6.359,43.497,9.615c14.299,3.256,28.476,6.374,42.606,8.878
			c14.115,2.504,28.169,4.377,41.915,5.053c3.272,0.169,6.512,0.261,9.722,0.276h0.522l0.63,0.015h0.323l2.043,0.061l1.398,0.108
			c1.382,0.138,2.888,0.369,4.162,0.645c1.905,0.415,3.778,0.983,5.606,1.689c3.655,1.428,7.081,3.441,10.091,5.929
			c6.021,4.976,10.46,12.011,12.272,19.752c0.461,1.92,0.768,3.886,0.906,5.821l0.077,1.444l0.015,0.722c0-0.123,0-0.184,0.015-0.23
			c0,0.307-0.046,2.181-0.046,2.473l-0.015,0.184l-0.092,1.382c-0.077,0.722-0.154,1.444-0.261,2.166
			c-0.108,0.676-0.261,1.521-0.369,2.043l-0.338,1.459c-0.476,1.92-1.137,3.809-1.92,5.637c-3.164,7.326-8.663,13.393-15.451,17.264
			c-3.394,1.951-7.111,3.348-10.92,4.116c-1.905,0.384-3.824,0.63-5.729,0.706l-0.691,0.031l-1.259,0.061h-0.015l-1.705,0.077
			l-2.995,0.138c-0.845,0.046-1.428,0.138-2.15,0.2c-1.398,0.123-2.718,0.215-4.439,0.445c-3.225,0.369-6.512,0.875-9.845,1.459
			c-13.301,2.35-27.324,6.466-42.145,11.473c-7.418,2.504-15.037,5.237-22.916,8.048l-5.637,2.043
			c-1.797,0.676-3.625,1.306-5.422,2.012c-3.594,1.413-7.219,2.795-10.767,4.301c-9.185,3.778-18.231,7.956-27.047,12.472
			c4.976-0.707,9.968-1.167,14.991-1.336c5.898-0.292,11.811-0.062,17.694,0.338c5.867,0.553,11.734,1.275,17.525,2.519
			c11.596,2.319,22.9,6.174,33.575,11.304c2.703,1.229,5.268,2.719,7.879,4.086c2.442,1.413,4.731,2.826,7.081,4.254
			c2.35,1.367,4.608,3.01,6.896,4.546l3.394,2.365l3.318,2.534c8.816,6.773,17.141,14.438,24.436,23.1
			c7.311,8.617,13.7,18.078,18.922,28.076c10.49,19.997,16.127,41.93,17.433,63.203C489.893,712.225,487.19,732.929,481.83,752.22z"
			/>
		<path d="M435.844,739.702c-4.27,14.683-10.475,28.706-18.446,41.454c-3.932,6.389-8.279,12.518-12.978,18.262
			c-4.592,5.836-9.722,11.151-14.914,16.296c-10.613,10.045-22.163,18.815-34.512,25.711c-6.098,3.579-12.502,6.497-18.861,9.262
			c-1.613,0.63-3.225,1.259-4.838,1.889l-2.411,0.922l-2.442,0.829c-1.628,0.538-3.256,1.09-4.884,1.628
			c-1.643,0.476-3.287,0.937-4.915,1.398l-2.458,0.691c-0.415,0.123-0.599,0.138-0.906,0.2l-1.643,0.338
			c-1.106,0.215-2.196,0.43-3.287,0.645c-2.166,0.491-4.347,0.737-6.497,1.09c-1.075,0.154-2.15,0.307-3.21,0.476
			c-1.075,0.108-2.135,0.215-3.195,0.307c-2.119,0.184-4.208,0.507-6.282,0.538c-16.634,1.044-31.763-0.845-44.618-3.947
			c-12.871-3.271-23.484-7.741-31.778-12.118c-4.193-2.104-7.726-4.377-10.813-6.267c-3.01-2.043-5.545-3.809-7.572-5.253
			c-3.686-2.888-5.76-4.516-5.99-4.715c0.276,0.138,2.626,1.29,6.804,3.348c2.242,1.044,5.038,2.258,8.309,3.655
			c3.333,1.244,7.096,2.765,11.427,4.116c8.601,2.765,19.214,5.391,31.471,6.712c12.272,1.167,26.172,1.137,40.947-1.444
			c1.843-0.23,3.686-0.737,5.56-1.09c0.937-0.184,1.874-0.384,2.811-0.568c0.937-0.246,1.874-0.476,2.826-0.722
			c1.874-0.507,3.794-0.906,5.668-1.536c0.952-0.292,1.905-0.584,2.857-0.86l1.444-0.43l2.934-0.937
			c1.444-0.461,2.888-0.906,4.331-1.367c1.428-0.538,2.857-1.06,4.285-1.597l2.15-0.783l2.119-0.906
			c1.413-0.599,2.826-1.198,4.239-1.782c5.56-2.642,11.151-5.376,16.465-8.709c10.767-6.42,20.735-14.468,29.858-23.561
			c4.469-4.654,8.862-9.446,12.779-14.699c4.009-5.161,7.71-10.629,11.012-16.296c6.712-11.304,11.765-23.607,15.129-36.171
			c3.21-12.594,4.531-25.496,3.563-37.845c-0.998-12.349-4.377-24.006-9.999-34.343c-5.652-10.337-13.531-19.445-23.73-26.955
			l-1.874-1.428l-2.012-1.336c-1.352-0.86-2.611-1.828-4.07-2.611l-4.208-2.473c-1.29-0.614-2.488-1.382-3.824-1.92
			c-5.161-2.396-10.675-4.239-16.419-5.284c-2.857-0.614-5.806-0.875-8.739-1.152c-2.964-0.123-5.929-0.261-8.908-0.046
			c-5.975,0.246-11.934,1.352-17.694,3.01c-5.76,1.674-11.289,4.07-16.434,7.004c-5.069,3.026-9.861,6.512-13.961,10.644
			l-1.551,1.551c-0.507,0.522-0.968,1.091-1.459,1.613c-0.998,1.06-1.858,2.227-2.795,3.333c-0.891,1.137-1.751,2.365-2.565,3.486
			l-1.075,1.659c-0.169,0.261-0.399,0.568-0.507,0.783l-0.323,0.599l-0.323,0.584l-0.384,0.768
			c-0.246,0.538-0.538,1.029-0.753,1.613c-0.507,1.09-0.937,2.273-1.398,3.456c-0.845,2.427-1.521,5.038-2.043,7.71
			c-1.044,5.33-1.244,10.92-0.691,15.897c0.507,5.022,1.951,9.277,3.517,12.164c0.799,1.444,1.597,2.58,2.411,3.44
			c0.829,0.845,1.643,1.474,2.596,2.058c0.983,0.553,2.074,1.137,3.609,1.551c0.845,0.276,2.795,0.753,4.853,1.244l6.988,1.689
			c5.053,1.259,10.767,2.795,17.11,5.13c3.21,1.198,6.62,2.611,10.26,4.454c3.655,1.874,7.541,4.116,11.719,7.326
			c4.132,3.195,8.555,7.357,12.502,12.886c3.947,5.468,7.188,12.395,8.801,19.383c0.445,1.782,0.722,3.486,0.952,5.191
			c0.123,0.86,0.23,1.736,0.323,2.596c0.092,1.06,0.138,2.135,0.184,3.21c0.031,1.075,0.031,2.15,0.015,3.225l-0.031,1.152
			l-0.015,0.43l-0.046,0.86l-0.031,0.43l-0.154,1.966l-0.061,0.538c-0.645,5.606-2.058,11.473-4.408,17.079
			c-2.365,5.56-5.545,10.751-9.139,15.113c-3.579,4.316-7.511,7.987-11.366,10.874c-3.84,2.857-7.726,5.268-11.396,7.096
			c-1.889,1.014-3.655,1.751-5.499,2.58c-1.751,0.707-3.563,1.474-5.284,2.058c-6.958,2.457-13.501,3.993-19.813,5.022
			c-6.313,1.044-12.425,1.613-18.538,1.797c-6.144,0.2-12.195,0.061-18.846-0.614c-1.643-0.169-3.425-0.415-5.176-0.66l-4.807-0.86
			c-1.597-0.276-3.195-0.66-4.792-1.029c-1.597-0.399-3.195-0.722-4.761-1.213c-12.671-3.502-24.851-9.108-35.633-16.373
			c-5.437-3.579-10.46-7.634-15.175-11.919c-4.715-4.27-9.031-8.878-12.994-13.67c-3.963-4.777-7.572-9.768-10.797-14.929
			c-3.225-5.145-6.159-10.429-8.693-15.835c-5.13-10.813-8.924-22.04-11.504-33.544c-1.259-5.744-2.258-11.565-2.888-17.448
			c-0.614-5.76-0.952-12.18-0.845-17.448c-0.123-21.948,3.502-44.188,10.736-65.046c7.203-20.873,17.955-40.118,30.734-56.859
			c12.748-16.834,27.431-31.271,42.852-43.804c7.71-6.313,15.682-11.98,23.73-17.417c8.064-5.345,16.265-10.291,24.544-14.914
			c13.424-7.418,27.032-13.977,40.748-19.752c-2.642-0.63-5.268-1.275-7.833-1.858c-6.558-1.505-12.917-2.826-19.015-3.886
			c-3.041-0.522-6.005-0.968-8.893-1.336c-1.398-0.154-2.857-0.353-4.224-0.476c-1.782-0.154-1.659-0.169-2.242-0.246
			c-7.127-0.845-13.332-0.983-17.709-0.43c-2.212,0.246-4.009,0.614-5.468,1.029c-1.459,0.43-2.565,0.922-3.64,1.505
			c-0.568,0.246-1.029,0.66-1.582,0.983c-0.476,0.445-1.029,0.799-1.505,1.352c-0.538,0.43-0.998,1.106-1.536,1.659
			c-0.476,0.66-0.983,1.306-1.459,2.043c-1.889,2.964-3.502,6.681-4.761,10.383c-2.427,7.541-3.717,14.745-4.347,19.66
			c-0.415,2.442-0.568,4.423-0.737,5.714c-0.154,1.305-0.23,1.981-0.23,1.981s-0.061-0.676-0.169-1.981
			c-0.092-1.306-0.338-3.302-0.445-5.775c-0.246-5.022-0.538-12.395,0.538-20.827c0.568-4.162,1.475-8.555,2.964-12.656
			c0.369-1.014,0.814-1.981,1.229-2.98c0.491-0.906,0.922-1.935,1.49-2.78c0.507-0.952,1.137-1.736,1.72-2.611
			c0.66-0.783,1.29-1.643,2.058-2.365c1.505-1.505,3.225-2.934,5.391-4.162c2.166-1.229,4.731-2.319,7.68-3.179
			c5.867-1.782,13.316-2.519,21.472-2.473l0.768,0.015l0.614,0.031l1.167,0.061c1.551,0.077,3.133,0.23,4.715,0.353
			c3.179,0.307,6.405,0.66,9.676,1.121c6.543,0.906,13.24,2.089,20.059,3.44c10.997,2.181,22.286,4.746,33.836,7.403
			c2.78,0.63,5.56,1.275,8.386,1.92c11.442,2.58,23.192,5.222,35.234,7.572c-2.319,0.753-4.608,1.505-6.912,2.273
			c-7.971,2.688-15.866,5.514-23.714,8.309c-1.075,0.384-2.196,0.799-3.287,1.198c-2.903,1.044-5.852,2.135-8.755,3.225
			c-4.009,1.567-8.048,3.103-12.042,4.792c-16.02,6.574-31.824,14.253-47.229,23.039c-7.664,4.454-15.236,9.169-22.655,14.223
			c-7.372,5.145-14.683,10.46-21.656,16.311c-13.977,11.611-27.063,24.79-38.198,39.811c-11.166,14.96-20.32,31.824-26.418,49.902
			c-6.082,18.078-9.108,37.261-8.893,56.383c-0.077,4.731,0.246,9.768,0.783,14.607c0.553,4.869,1.413,9.707,2.488,14.484
			c2.196,9.553,5.406,18.892,9.692,27.785c8.494,17.74,21.364,33.959,38.352,45.279c8.448,5.652,17.878,9.968,27.723,12.671
			c1.229,0.384,2.473,0.614,3.717,0.922c1.244,0.292,2.473,0.599,3.732,0.799l3.763,0.676c1.29,0.184,2.611,0.353,3.87,0.476
			c5.115,0.522,10.091,0.645,15.083,0.461c4.992-0.154,9.968-0.63,14.96-1.459c4.992-0.829,10.014-2.043,15.021-3.824
			c5.007-1.782,10.06-4.224,14.806-7.772c2.381-1.782,4.623-3.947,6.666-6.374c2.027-2.458,3.717-5.299,5.022-8.325
			c1.275-3.041,2.058-6.236,2.427-9.4l0.046-0.292l0.046-0.691l0.031-0.43l0.046-0.845c0.046-0.399,0.031-1.582,0-2.55l-0.077-1.474
			l-0.169-1.321c-0.107-0.875-0.246-1.736-0.476-2.611c-0.799-3.502-2.381-6.912-4.408-9.738c-2.027-2.841-4.408-5.13-6.85-7.019
			c-4.884-3.732-9.891-5.959-14.729-7.802c-4.853-1.782-9.615-3.102-14.207-4.254c-4.562-1.167-9.169-2.135-12.902-3.256
			c-3.64-1.029-7.004-2.58-10.122-4.454c-6.236-3.748-11.289-9.231-14.837-15.912c-3.563-6.651-5.79-14.33-6.589-22.286
			c-0.829-7.941-0.43-16.142,1.167-24.068c1.536-7.895,4.301-15.636,8.11-22.301c1.874-3.287,4.331-6.651,6.819-9.845
			c1.306-1.551,2.565-3.164,3.963-4.623c0.707-0.737,1.367-1.505,2.074-2.227l2.166-2.15c5.806-5.683,12.441-10.475,19.445-14.545
			c7.065-3.963,14.591-7.127,22.394-9.323c7.802-2.135,15.82-3.471,23.853-3.717c4.009-0.2,8.017,0,12.011,0.246
			c3.978,0.415,7.941,0.875,11.826,1.736c7.787,1.567,15.298,4.162,22.378,7.587c1.797,0.783,3.471,1.812,5.207,2.703
			c1.736,1.014,3.456,2.104,5.176,3.133c1.766,0.998,3.364,2.212,5.038,3.333l2.473,1.705l2.365,1.843
			c12.717,9.646,23.008,21.841,30.089,35.556c7.142,13.7,11.089,28.875,11.995,44.204
			C441.942,709.568,439.945,725.004,435.844,739.702z"/>
	</g>
</g>
</svg>
